<svg width="16" height="16" viewBox="0 0 16 16" fill="none" xmlns="http://www.w3.org/2000/svg">
<path d="M8.97 4.97004C9.11086 4.83593 9.29832 4.76179 9.49282 4.76326C9.68731 4.76473 9.87362 4.8417 10.0124 4.97793C10.1513 5.11416 10.2317 5.29899 10.2369 5.49342C10.242 5.68785 10.1714 5.87667 10.04 6.02004L6.05 11.01C5.98139 11.0839 5.89858 11.1432 5.80653 11.1844C5.71448 11.2256 5.61507 11.2478 5.51425 11.2496C5.41343 11.2515 5.31327 11.233 5.21975 11.1953C5.12624 11.1575 5.0413 11.1014 4.97 11.03L2.324 8.38404C2.25031 8.31538 2.19121 8.23258 2.15022 8.14058C2.10922 8.04858 2.08718 7.94927 2.08541 7.84857C2.08363 7.74786 2.10215 7.64783 2.13987 7.55445C2.1776 7.46106 2.23374 7.37622 2.30496 7.305C2.37618 7.23379 2.46101 7.17764 2.5544 7.13992C2.64779 7.1022 2.74782 7.08367 2.84852 7.08545C2.94922 7.08723 3.04854 7.10927 3.14054 7.15026C3.23253 7.19125 3.31534 7.25036 3.384 7.32404L5.478 9.41704L8.95 4.99204C8.95622 4.98432 8.9629 4.97698 8.97 4.97004V4.97004ZM8.05 10.11L8.97 11.03C9.04128 11.1012 9.12616 11.1573 9.21958 11.1949C9.313 11.2325 9.41304 11.251 9.51374 11.2491C9.61444 11.2472 9.71373 11.2251 9.80569 11.184C9.89765 11.143 9.9804 11.0838 10.049 11.01L14.041 6.02004C14.1127 5.94924 14.1694 5.86472 14.2077 5.77152C14.2461 5.67832 14.2652 5.57835 14.264 5.47758C14.2628 5.37682 14.2414 5.27732 14.2009 5.18504C14.1604 5.09276 14.1018 5.00958 14.0284 4.94047C13.9551 4.87137 13.8686 4.81775 13.774 4.78282C13.6795 4.74789 13.5789 4.73237 13.4782 4.73718C13.3776 4.742 13.2789 4.76705 13.1882 4.81084C13.0974 4.85462 13.0164 4.91625 12.95 4.99204L9.477 9.41704L8.992 8.93104L8.049 10.11H8.05Z" fill="#FF5E00"/>
</svg>
