<svg width="200" height="200" viewBox="0 0 200 200" fill="none" xmlns="http://www.w3.org/2000/svg">
<g clip-path="url(#clip0_8_30)">
<path d="M193.75 76.25C192.092 76.25 190.503 75.5915 189.331 74.4194C188.158 73.2473 187.5 71.6576 187.5 70V38.75C187.5 35.4348 186.183 32.2554 183.839 29.9112C181.495 27.567 178.315 26.25 175 26.25L25 26.25C21.6848 26.25 18.5054 27.567 16.1612 29.9112C13.817 32.2554 12.5 35.4348 12.5 38.75V70C12.5 71.6576 11.8415 73.2473 10.6694 74.4194C9.49732 75.5915 7.9076 76.25 6.25 76.25C4.5924 76.25 3.00268 75.5915 1.83058 74.4194C0.658476 73.2473 0 71.6576 0 70V38.75C0 32.1196 2.63393 25.7607 7.32234 21.0723C12.0107 16.3839 18.3696 13.75 25 13.75L175 13.75C181.63 13.75 187.989 16.3839 192.678 21.0723C197.366 25.7607 200 32.1196 200 38.75V70C200 71.6576 199.342 73.2473 198.169 74.4194C196.997 75.5915 195.408 76.25 193.75 76.25V76.25Z" fill="#3082FF"/>
<path d="M104.425 185.675C103.844 186.257 103.155 186.719 102.395 187.034C101.636 187.349 100.822 187.511 100 187.511C99.1779 187.511 98.3639 187.349 97.6046 187.034C96.8453 186.719 96.1556 186.257 95.575 185.675L58.075 148.175C56.9014 147.001 56.2421 145.41 56.2421 143.75C56.2421 142.09 56.9014 140.499 58.075 139.325C59.2486 138.151 60.8403 137.492 62.5 137.492C64.1597 137.492 65.7514 138.151 66.925 139.325L93.75 166.163L93.75 56.2501C93.75 54.5925 94.4085 53.0027 95.5806 51.8306C96.7527 50.6585 98.3424 50.0001 100 50.0001C101.658 50.0001 103.247 50.6585 104.419 51.8306C105.592 53.0027 106.25 54.5925 106.25 56.2501L106.25 166.163L133.075 139.325C133.656 138.744 134.346 138.283 135.105 137.969C135.864 137.654 136.678 137.492 137.5 137.492C138.322 137.492 139.136 137.654 139.895 137.969C140.654 138.283 141.344 138.744 141.925 139.325C142.506 139.906 142.967 140.596 143.282 141.355C143.596 142.115 143.758 142.928 143.758 143.75C143.758 144.572 143.596 145.386 143.282 146.145C142.967 146.904 142.506 147.594 141.925 148.175L104.425 185.675Z" fill="#3082FF"/>
</g>
<defs>
<clipPath id="clip0_8_30">
<rect width="200" height="200" fill="white" transform="translate(200 200) rotate(-180)"/>
</clipPath>
</defs>
</svg>
