<svg width="89" height="83" viewBox="0 0 89 83" fill="none" xmlns="http://www.w3.org/2000/svg">
<path d="M80.1035 0C75.1966 0 71.2071 4.00218 71.2071 8.92473C71.2071 13.8473 75.1966 17.8495 80.1035 17.8495C85.0105 17.8495 89 13.8473 89 8.92473C89 4.00218 85.0105 0 80.1035 0ZM49.0772 0.111559C48.7783 0.111559 48.4933 0.125505 48.2431 0.167339L29.783 2.1754C28.1983 2.62861 23.9725 3.78604 24.5007 7.19556C24.7231 8.98051 27.2044 9.8172 29.3938 9.8172C29.6579 9.8172 29.915 9.78234 30.061 9.76143L47.3535 9.42675L53.4698 14.2238L39.6803 23.9294C35.948 26.6487 32.5701 30.1977 35.8993 36.0336L48.1875 53.8273C43.7602 53.8831 31.9376 54.0365 29.2826 54.3293C25.0359 54.8313 24.3895 57.3414 24.3895 58.7917C24.3895 61.0089 25.9533 63.254 29.3938 63.254H58.0292C60.3437 63.254 62.1369 62.4034 62.9779 60.9671C63.7355 59.6841 63.6799 58.0596 62.7555 56.3931C61.4835 54.0086 52.4481 40.231 50.3004 36.8703L68.5938 25.2124C71.3044 23.4832 71.923 20.8267 70.3175 17.961C69.0664 15.6322 66.0013 10.9189 65.9248 10.8212C65.7997 10.5702 65.5704 10.0682 51.9129 1.05981C51.1206 0.425319 50.1336 0.111559 49.0772 0.111559ZM1.42554 15.172C0.52895 15.3603 -0.0757315 16.197 0.00767278 17.1034C0.091077 18.0168 0.848665 18.721 1.75916 18.7419H35.5657C36.2677 18.8465 36.9627 18.5328 37.345 17.9331C37.7272 17.3405 37.7272 16.5735 37.345 15.9808C36.9627 15.3812 36.2677 15.0675 35.5657 15.172H1.75916C1.64796 15.1651 1.53675 15.1651 1.42554 15.172ZM1.42554 24.0968C0.52895 24.285 -0.0757315 25.1217 0.00767278 26.0281C0.091077 26.9415 0.848665 27.6457 1.75916 27.6667H26.6692C27.3712 27.7713 28.0663 27.4575 28.4485 26.8579C28.8308 26.2652 28.8308 25.4982 28.4485 24.9056C28.0663 24.3059 27.3712 23.9922 26.6692 24.0968H1.75916C1.64796 24.0898 1.53675 24.0898 1.42554 24.0968ZM71.9855 27.0531C71.5338 27.4645 71.0403 27.8689 70.4843 28.2245L62.6443 33.2446L63.1447 36.2009C63.1586 36.2707 63.1725 36.3613 63.2003 36.4241C63.7633 37.7349 64.5 39.0178 66.5921 39.2688C66.7102 39.2618 78.8803 38.5437 81.5492 38.5437C86.484 38.2369 87.3806 36.0197 87.4987 34.6949C87.5682 33.5932 87.3597 32.7705 86.8315 32.1848C85.9835 31.2435 84.6491 31.1878 83.2173 31.125C82.9045 31.1111 82.564 31.0971 82.2165 31.0692L72.3192 30.5672L71.9855 27.0531ZM1.42554 33.0215C0.52895 33.2098 -0.0757315 34.0465 0.00767278 34.9529C0.091077 35.8663 0.848665 36.5705 1.75916 36.5914H26.6692C27.3712 36.696 28.0663 36.3822 28.4485 35.7826C28.8308 35.1899 28.8308 34.423 28.4485 33.8303C28.0663 33.2307 27.3712 32.9169 26.6692 33.0215H1.75916C1.64796 33.0145 1.53675 33.0145 1.42554 33.0215ZM1.42554 41.9462C0.52895 42.1345 -0.0757315 42.9712 0.00767278 43.8776C0.091077 44.791 0.848665 45.4952 1.75916 45.5161H33.7864C34.4884 45.6207 35.1834 45.307 35.5657 44.7073C35.948 44.1147 35.948 43.3477 35.5657 42.755C35.1834 42.1554 34.4884 41.8416 33.7864 41.9462H1.75916C1.64796 41.9393 1.53675 41.9393 1.42554 41.9462ZM35.2877 66.8239C32.5979 69.6129 29.644 72.6738 28.2817 74.2984C25.8491 77.1431 25.5016 79.9391 27.3365 81.996C28.1427 82.7141 28.9767 83 29.8386 83C31.7777 83 33.8003 81.4591 35.6213 79.8206C37.5952 78.0705 44.2953 71.3979 48.8548 66.8239H35.2877Z" fill="#0F70C4"/>
</svg>
