<svg width="85" height="85" viewBox="0 0 85 85" fill="none" xmlns="http://www.w3.org/2000/svg">
<path d="M57.2793 0.5C52.9848 0.5 49.5 3.9848 49.5 8.2793C49.5 14.5478 58.5911 22.3809 62.1191 25.1914C62.9346 25.8389 64.0654 25.8389 64.8809 25.1914C68.4124 22.3809 77.5 14.5478 77.5 8.2793C77.5 3.9848 74.0152 0.5 69.7207 0.5C67.1622 0.5 64.9175 1.74737 63.5 3.65137C62.0825 1.74737 59.8343 0.5 57.2793 0.5ZM21.5 32C9.901 32 0.5 41.401 0.5 53C0.5 66.811 13.9825 73.1521 15.498 75.0596C17.22 77.2331 18.0424 81.6492 18.1299 81.9502C18.5429 83.4237 19.897 84.5 21.5 84.5C23.103 84.5 24.4536 83.4237 24.8701 81.9502C24.9541 81.6492 25.7765 77.2331 27.502 75.0596C29.014 73.1521 42.5 66.811 42.5 53C42.5 41.401 33.099 32 21.5 32ZM70.5 32C69.5717 32 68.6815 32.3687 68.0251 33.0251C67.3687 33.6815 67 34.5717 67 35.5C67 36.4283 67.3687 37.3185 68.0251 37.9749C68.6815 38.6312 69.5717 39 70.5 39C71.4283 39 72.3185 38.6312 72.9749 37.9749C73.6312 37.3185 74 36.4283 74 35.5C74 34.5717 73.6312 33.6815 72.9749 33.0251C72.3185 32.3687 71.4283 32 70.5 32ZM77.5 42.5C76.5717 42.5 75.6815 42.8687 75.0251 43.5251C74.3687 44.1815 74 45.0717 74 46C74 46.9283 74.3687 47.8185 75.0251 48.4749C75.6815 49.1312 76.5717 49.5 77.5 49.5C78.4283 49.5 79.3185 49.1312 79.9749 48.4749C80.6312 47.8185 81 46.9283 81 46C81 45.0717 80.6312 44.1815 79.9749 43.5251C79.3185 42.8687 78.4283 42.5 77.5 42.5ZM21.5 46C25.3675 46 28.5 49.1325 28.5 53C28.5 56.8675 25.3675 60 21.5 60C17.6325 60 14.5 56.8675 14.5 53C14.5 49.1325 17.6325 46 21.5 46ZM81 56.5C80.0717 56.5 79.1815 56.8687 78.5251 57.5251C77.8687 58.1815 77.5 59.0717 77.5 60C77.5 60.9283 77.8687 61.8185 78.5251 62.4749C79.1815 63.1312 80.0717 63.5 81 63.5C81.9283 63.5 82.8185 63.1312 83.4749 62.4749C84.1312 61.8185 84.5 60.9283 84.5 60C84.5 59.0717 84.1312 58.1815 83.4749 57.5251C82.8185 56.8687 81.9283 56.5 81 56.5ZM74 67C73.0717 67 72.1815 67.3687 71.5251 68.0251C70.8687 68.6815 70.5 69.5717 70.5 70.5C70.5 71.4283 70.8687 72.3185 71.5251 72.9749C72.1815 73.6312 73.0717 74 74 74C74.9283 74 75.8185 73.6312 76.4749 72.9749C77.1312 72.3185 77.5 71.4283 77.5 70.5C77.5 69.5717 77.1312 68.6815 76.4749 68.0251C75.8185 67.3687 74.9283 67 74 67ZM63.5 74C62.5717 74 61.6815 74.3687 61.0251 75.0251C60.3687 75.6815 60 76.5717 60 77.5C60 78.4283 60.3687 79.3185 61.0251 79.9749C61.6815 80.6312 62.5717 81 63.5 81C64.4282 81 65.3185 80.6312 65.9749 79.9749C66.6312 79.3185 67 78.4283 67 77.5C67 76.5717 66.6312 75.6815 65.9749 75.0251C65.3185 74.3687 64.4282 74 63.5 74ZM35.5 77.5C34.5717 77.5 33.6815 77.8687 33.0251 78.5251C32.3687 79.1815 32 80.0717 32 81C32 81.9283 32.3687 82.8185 33.0251 83.4749C33.6815 84.1312 34.5717 84.5 35.5 84.5C36.4283 84.5 37.3185 84.1312 37.9749 83.4749C38.6312 82.8185 39 81.9283 39 81C39 80.0717 38.6312 79.1815 37.9749 78.5251C37.3185 77.8687 36.4283 77.5 35.5 77.5ZM49.5 77.5C48.5717 77.5 47.6815 77.8687 47.0251 78.5251C46.3687 79.1815 46 80.0717 46 81C46 81.9283 46.3687 82.8185 47.0251 83.4749C47.6815 84.1312 48.5717 84.5 49.5 84.5C50.4283 84.5 51.3185 84.1312 51.9749 83.4749C52.6312 82.8185 53 81.9283 53 81C53 80.0717 52.6312 79.1815 51.9749 78.5251C51.3185 77.8687 50.4283 77.5 49.5 77.5Z" fill="#0F70C4"/>
</svg>
