<svg width="200" height="200" viewBox="0 0 200 200" fill="none" xmlns="http://www.w3.org/2000/svg">
<path d="M6.25 123.75C7.9076 123.75 9.49732 124.408 10.6694 125.581C11.8415 126.753 12.5 128.342 12.5 130V161.25C12.5 164.565 13.817 167.745 16.1612 170.089C18.5054 172.433 21.6848 173.75 25 173.75H175C178.315 173.75 181.495 172.433 183.839 170.089C186.183 167.745 187.5 164.565 187.5 161.25V130C187.5 128.342 188.158 126.753 189.331 125.581C190.503 124.408 192.092 123.75 193.75 123.75C195.408 123.75 196.997 124.408 198.169 125.581C199.342 126.753 200 128.342 200 130V161.25C200 167.88 197.366 174.239 192.678 178.928C187.989 183.616 181.63 186.25 175 186.25H25C18.3696 186.25 12.0107 183.616 7.32233 178.928C2.63392 174.239 0 167.88 0 161.25V130C0 128.342 0.65848 126.753 1.83058 125.581C3.00269 124.408 4.5924 123.75 6.25 123.75V123.75Z" fill="#3082FF"/>
<path d="M95.575 14.325C96.1556 13.743 96.8453 13.2812 97.6046 12.9661C98.3639 12.651 99.1779 12.4888 100 12.4888C100.822 12.4888 101.636 12.651 102.395 12.9661C103.155 13.2812 103.844 13.743 104.425 14.325L141.925 51.825C143.099 52.9986 143.758 54.5903 143.758 56.25C143.758 57.9097 143.099 59.5014 141.925 60.675C140.751 61.8486 139.16 62.5079 137.5 62.5079C135.84 62.5079 134.249 61.8486 133.075 60.675L106.25 33.8375V143.75C106.25 145.408 105.592 146.997 104.419 148.169C103.247 149.342 101.658 150 100 150C98.3424 150 96.7527 149.342 95.5806 148.169C94.4085 146.997 93.75 145.408 93.75 143.75V33.8375L66.925 60.675C66.3439 61.2561 65.654 61.7171 64.8948 62.0315C64.1355 62.346 63.3218 62.5079 62.5 62.5079C61.6782 62.5079 60.8644 62.346 60.1052 62.0315C59.346 61.7171 58.6561 61.2561 58.075 60.675C57.4939 60.0939 57.0329 59.404 56.7185 58.6448C56.404 57.8856 56.2421 57.0718 56.2421 56.25C56.2421 55.4282 56.404 54.6145 56.7185 53.8552C57.0329 53.096 57.4939 52.4061 58.075 51.825L95.575 14.325Z" fill="#3082FF"/>
</svg>
